<svg width="213" height="69" viewBox="0 0 213 69" fill="none" xmlns="http://www.w3.org/2000/svg">
<path d="M35.832 50.5624C34.4859 48.0727 32.4151 48.1334 30.1189 48.5889C25.8554 49.4147 21.5127 50.1131 17.2066 50.8661C15.5438 51.1575 13.8079 51.2851 12.6263 53.1068C12.3462 51.4247 12.1817 50.022 11.8711 48.6496C11.043 44.9393 9.20051 41.5301 6.54779 38.8C-3.58107 28.1793 -0.627069 10.3869 12.3401 3.1424C15.5957 1.27539 19.2502 0.207635 23.0017 0.0273647C26.7531 -0.152905 30.4937 0.559484 33.9143 2.10567C37.3349 3.65186 40.3374 5.98746 42.6736 8.91943C45.0097 11.8514 46.6125 15.2956 47.3495 18.9673C48.8417 26.3575 46.9719 33.0372 41.9166 38.5571C38.891 41.7379 36.8594 45.7278 36.0695 50.0402C36.0044 50.2203 35.925 50.3949 35.832 50.5624ZM39.054 23.3213C39.2793 22.9812 39.663 22.714 39.5473 22.2161C40.8263 21.3356 41.0882 19.9025 41.4415 18.5726C42.282 15.421 40.8324 13.0163 37.7323 12.1054C35.9179 11.6117 34.0154 11.5307 32.1654 11.8686C32.0198 11.9144 31.8664 11.9297 31.7146 11.9137C31.5628 11.8976 31.416 11.8505 31.2834 11.7753C31.1507 11.7 31.0351 11.5983 30.9437 11.4764C30.8523 11.3545 30.7871 11.2151 30.7523 11.067C30.1292 9.49204 29.2115 8.04953 28.048 6.81626C25.4107 4.114 22.3349 4.21115 19.8438 7.08344C18.7785 8.28769 17.9407 9.67436 17.371 11.1763C17.3315 11.3571 17.2553 11.5279 17.147 11.6781C17.0387 11.8284 16.9007 11.955 16.7415 12.05C16.5822 12.145 16.4052 12.2065 16.2212 12.2307C16.0372 12.2548 15.8502 12.2411 15.6717 12.1904C14.5612 12.0659 13.4409 12.0537 12.3279 12.154C7.71722 12.5122 4.84848 15.6214 7.0046 20.4247C7.1293 20.6302 7.19007 20.868 7.17923 21.1079C7.16839 21.3479 7.08642 21.5793 6.94369 21.7728C6.67566 22.1435 6.56152 22.603 6.62506 23.0556C6.68861 23.5081 6.92494 23.9187 7.28477 24.2018C7.58414 24.4914 7.97077 24.6747 8.38501 24.7235C8.79925 24.7724 9.2181 24.6839 9.57694 24.4719C9.93577 24.2599 10.2147 23.936 10.3706 23.5503C10.5265 23.1646 10.5508 22.7384 10.4398 22.3375C10.3509 21.894 10.0965 21.5005 9.72794 21.2368C9.35938 20.973 8.90413 20.8586 8.45419 20.9166C8.10093 20.9166 7.78421 20.9894 7.51013 20.6129C6.07272 18.6151 6.85843 15.0505 9.04499 13.9332C11.2316 12.8159 13.5399 12.9798 15.8605 13.3685C16.1346 13.411 16.4087 13.496 16.3356 13.8603C15.9214 15.8643 15.5194 17.8682 15.0626 19.8599C15.0017 20.115 14.6667 20.3275 14.4535 20.534C12.9996 21.751 11.6527 23.0898 10.4276 24.5358C8.68469 26.516 7.43291 28.8769 6.77315 31.428C6.03009 34.7497 7.49795 37.1665 10.793 37.962C12.4433 38.3872 14.1773 38.3684 15.8179 37.9074C15.9868 37.8248 16.1721 37.781 16.3602 37.7792C16.5483 37.7773 16.7345 37.8174 16.905 37.8966C17.0756 37.9758 17.2262 38.092 17.3458 38.2368C17.4654 38.3816 17.551 38.5512 17.5964 38.7332C18.2761 40.4368 19.3339 41.9647 20.6904 43.2026C22.7857 45.0243 25.0514 45.1154 27.2501 43.4151C28.6548 42.2334 29.7624 40.7402 30.4843 39.0551C31.3309 37.3123 31.3066 37.3244 33.2982 37.7009C35.1963 38.0743 37.1628 37.8799 38.9504 37.1422C39.9665 36.7618 40.8221 36.0473 41.3758 35.1165C41.9295 34.1858 42.1482 33.0946 41.9958 32.0231C41.8107 30.5605 41.3322 29.15 40.5888 27.8756C38.8573 24.9216 36.5528 22.3411 33.8098 20.285C33.4018 19.9632 32.9693 19.6778 32.8901 19.0705C32.6919 17.3468 32.333 15.6452 31.8182 13.9879C31.6355 13.3806 31.7573 13.0709 32.4272 12.9555C34.2629 12.536 36.1733 12.5672 37.9942 13.0466C39.0483 13.3106 39.9587 13.9721 40.5335 14.8918C41.1083 15.8115 41.3028 16.9177 41.0761 17.9775C40.7912 19.4599 40.2884 20.8923 39.5838 22.2282C39.3094 22.5368 39.126 22.9151 39.054 23.3213H39.0113H39.054Z" fill="white"/>
<path d="M185.462 26.4542V10.2953C185.462 8.47354 185.724 8.15777 187.521 8.18206C192.113 8.24886 196.712 7.98166 201.304 8.31565C207.87 8.79537 212.542 14.1452 211.141 21.997C210.635 24.8389 209.46 27.359 206.92 29.0046C206.25 29.4358 206.487 29.8305 206.731 30.3345C208.674 34.3848 210.629 38.4291 212.542 42.4795C213.413 44.3012 213.102 44.7749 211.092 44.7749C209.393 44.7749 207.693 44.7263 206 44.7749C205.358 44.8624 204.705 44.721 204.156 44.3755C203.608 44.03 203.2 43.5026 203.004 42.8863C201.572 39.4371 199.958 36.0548 198.527 32.6056C198.07 31.5065 197.534 31.0328 196.279 31.0935C193.947 31.2089 193.941 31.1239 193.941 33.4132C193.941 36.6195 193.941 39.8258 193.941 43.026C193.941 44.5137 193.709 44.7506 192.247 44.7627C190.639 44.7627 189.031 44.7627 187.43 44.7627C185.828 44.7627 185.468 44.4894 185.468 42.8438C185.464 37.3948 185.462 31.9315 185.462 26.4542ZM193.941 19.5801C193.941 20.6974 193.941 21.8087 193.941 22.92C193.941 23.424 194.014 23.7944 194.647 23.7762C196.383 23.7215 198.131 23.9159 199.855 23.5758C201.84 23.1932 202.937 21.7541 202.967 19.5072C203.05 18.6088 202.778 17.7137 202.209 17.0118C201.641 16.31 200.82 15.8568 199.922 15.7484C198.198 15.4144 196.45 15.6391 194.714 15.5662C194.105 15.5662 193.947 15.8334 193.959 16.3799C193.959 17.4487 193.941 18.5174 193.941 19.5801Z" fill="white"/>
<path d="M123.167 26.5098V10.2234C123.167 8.44414 123.307 8.31055 125.061 8.31055H135.896C144.874 8.31055 149.722 12.3487 151.227 21.2146C151.962 25.4823 151.8 29.8558 150.751 34.0579C149.064 40.8591 144.052 44.6908 136.798 44.788C132.826 44.8426 128.88 44.788 124.884 44.788C123.459 44.788 123.185 44.4965 123.154 43.0573V26.5098H123.167ZM131.584 26.6191C131.584 29.8679 131.584 33.1106 131.584 36.3351C131.584 37.1488 131.834 37.4463 132.656 37.3977C133.874 37.3249 135.092 37.3977 136.262 37.2884C137.682 37.2308 139.046 36.7182 140.15 35.8267C141.255 34.9352 142.042 33.7122 142.395 32.3394C143.675 28.2758 143.588 23.9061 142.145 19.8968C141.782 18.7372 141.072 17.7163 140.109 16.9715C139.146 16.2267 137.978 15.7938 136.761 15.7311C135.543 15.6097 134.264 15.7311 133.021 15.6036C131.943 15.5186 131.547 15.8404 131.572 16.9881C131.633 20.2126 131.584 23.4189 131.584 26.6191Z" fill="white"/>
<path d="M117.173 26.4489C117.241 29.9208 116.724 33.3795 115.644 36.681C114.018 41.3325 110.699 43.968 105.954 44.8728C101.892 45.6258 97.8838 45.5529 94.0771 43.6158C92.8771 43.0612 91.7988 42.2757 90.9041 41.3045C90.0094 40.3332 89.3159 39.1954 88.8635 37.9562C86.3176 30.7239 86.1044 23.4187 88.6625 16.1378C90.2887 11.5105 93.7361 8.94189 98.4807 8.06745C101.61 7.49032 104.832 7.66729 107.879 8.5836C112.971 10.1017 115.309 13.9517 116.473 18.755C117.007 21.2835 117.242 23.8657 117.173 26.4489ZM95.4049 25.6473C95.3443 27.5083 95.4421 29.3712 95.6973 31.2158C95.8113 32.8208 96.3264 34.3718 97.1956 35.7276C98.7061 37.8287 100.905 38.023 103.195 37.7497C104.232 37.6688 105.218 37.2708 106.019 36.61C106.821 35.9491 107.398 35.0578 107.672 34.0577C109.107 29.3506 109.185 24.3361 107.897 19.587C107.117 16.49 104.894 15.0022 101.806 15.1115C98.7183 15.2208 96.9337 16.7268 96.148 19.8238C95.6807 21.7308 95.4314 23.6844 95.4049 25.6473Z" fill="white"/>
<path d="M157.214 26.4669C157.214 21.03 157.214 15.5991 157.214 10.1744C157.214 8.41944 157.457 8.18262 159.236 8.18262H179.597C181.26 8.18262 181.51 8.44373 181.522 10.1379C181.522 11.4314 181.522 12.7248 181.522 14.0122C181.522 15.1477 181.047 15.5971 179.902 15.585C175.638 15.5485 171.332 15.585 167.044 15.5485C165.966 15.5485 165.509 15.7914 165.595 16.9452C165.683 18.2351 165.683 19.5295 165.595 20.8195C165.522 21.9004 165.85 22.289 166.996 22.2647C170.613 22.1918 174.231 22.2647 177.843 22.2647C179.579 22.2647 179.731 22.4287 179.737 24.2018C179.737 25.4163 179.737 26.6308 179.737 27.8028C179.737 29.3452 179.408 29.6246 177.819 29.6246C174.292 29.6246 170.766 29.6246 167.239 29.6246C165.613 29.6246 165.613 29.6245 165.613 31.3006C165.613 32.8612 165.674 34.4218 165.613 35.9764C165.552 37.0573 165.863 37.4398 167.008 37.4216C171.271 37.3548 175.583 37.3913 179.865 37.4216C181.595 37.4216 181.765 37.6038 181.778 39.3466C181.778 40.5894 181.778 41.8343 181.778 43.0812C181.778 44.5386 181.528 44.7936 180.06 44.7997C176.491 44.7997 172.916 44.7997 169.347 44.7997H159.138C157.415 44.7997 157.196 44.5871 157.196 42.8929C157.208 37.4196 157.214 31.9442 157.214 26.4669Z" fill="white"/>
<path d="M56.6133 26.6126C56.5451 23.3595 57.0354 20.1186 58.0629 17.0302C59.9388 11.8626 63.6359 8.86275 69.0749 8.10369C73.5538 7.41256 78.1344 7.82962 82.4136 9.31818C84.5453 10.0772 84.789 10.563 84.2712 12.6823C83.3516 16.4776 83.851 16.0101 80.0077 15.7186C78.2293 15.5728 76.4508 15.4028 74.6723 15.2874C69.7327 14.9717 67.3208 16.7995 66.4498 21.6635C65.7741 25.31 65.8466 29.0552 66.663 32.6729C67.5035 36.3164 69.4769 37.8771 73.1801 37.9196C75.9936 37.9207 78.8039 37.73 81.5913 37.3488C83.3394 37.1241 83.5891 37.2941 84.0276 38.9701C84.0276 39.0551 84.0703 39.1401 84.0946 39.2312C85.063 42.8201 84.8864 43.1966 81.3416 44.241C77.344 45.4299 73.1322 45.7223 69.0079 45.0973C62.6492 44.1317 58.5623 39.9964 57.2955 33.5595C56.8307 31.2732 56.6021 28.9454 56.6133 26.6126Z" fill="white"/>
<path d="M39.7663 63.193C42.5985 62.0939 45.053 62.5858 47.398 63.8974C48.6709 64.6079 48.6587 65.5917 47.3553 66.29C45.1444 67.462 42.6959 67.7899 40.2657 68.1482C33.5659 69.1319 26.8235 69.053 20.0811 68.9255C14.8991 68.8891 9.73339 68.3419 4.6594 67.292C3.43306 67.038 2.24399 66.6299 1.12069 66.0775C0.560348 65.7981 0 65.4702 0 64.7112C0 63.9521 0.542075 63.691 1.07197 63.4602C3.81279 62.2457 6.59625 61.4442 9.59897 62.5493C9.46497 63.0412 9.04472 62.9319 8.74018 63.0048C7.77184 63.1755 6.83266 63.4822 5.95063 63.9157C4.95176 64.4865 4.94566 65.1302 5.95063 65.6585C7.52419 66.4116 9.21933 66.8804 10.9572 67.043C20.3231 68.5048 29.8645 68.4474 39.212 66.873C40.128 66.6777 41.028 66.4139 41.9041 66.0835C42.4097 65.9074 43.0065 65.6463 43.0309 65.0633C43.0553 64.4804 42.3792 64.1586 41.8554 63.94C41.3316 63.7213 40.6312 63.4967 39.7663 63.193Z" fill="white"/>
<path d="M31.7815 50.8905C32.9996 50.7872 33.4808 51.2062 33.5539 51.9714C33.6453 52.8397 33.0727 53.2284 32.2688 53.368C28.9737 53.9389 25.6786 54.5279 22.3835 55.1048C20.4528 55.4448 18.5098 55.7545 16.5852 56.131C15.6472 56.3132 14.9102 56.131 14.7579 55.1412C14.6057 54.1514 15.367 53.7688 16.2197 53.617L30.3258 51.1455L31.7815 50.8905Z" fill="white"/>
<path d="M17.2614 61.1829C16.2626 61.2618 15.6839 60.9946 15.5682 60.1809C15.4525 59.3672 15.9763 58.8693 16.7864 58.7296C20.6398 58.0373 24.4972 57.3511 28.3587 56.671C29.1871 56.5253 30.0215 56.3735 30.8559 56.2338C31.6903 56.0941 32.543 56.1184 32.6831 57.2054C32.8232 58.2924 32.0741 58.596 31.2335 58.7417L20.4347 60.6242L17.2614 61.1829Z" fill="white"/>
<path d="M189.58 53.9751C189.58 55.9973 189.58 57.8919 189.58 59.7926C189.58 60.1448 189.58 60.5031 189.58 60.8553C189.58 61.2075 189.525 61.4261 189.184 61.4625C188.745 61.4625 188.69 61.1528 188.69 60.8553C188.69 59.4343 188.69 58.0073 188.69 56.6045C188.69 55.3172 188.69 54.0237 188.69 52.7363C188.69 52.3963 188.569 51.9469 189.007 51.8073C189.446 51.6676 189.75 51.9834 189.976 52.3356C191.127 54.1573 192.266 55.9426 193.441 57.7279C193.691 58.1105 193.855 58.8453 194.379 58.6995C194.988 58.5174 194.702 57.7826 194.714 57.2907C194.751 55.8272 194.714 54.3577 194.714 52.8882C194.714 52.4752 194.568 51.8498 195.189 51.8194C195.811 51.789 195.731 52.4267 195.731 52.8335C195.731 55.3637 195.731 57.898 195.731 60.4363C195.731 60.8249 195.853 61.3228 195.366 61.4807C194.757 61.6751 194.501 61.1953 194.227 60.7763C192.96 58.7845 191.691 56.7968 190.42 54.8131C190.35 54.6208 190.238 54.4461 190.093 54.3013C189.948 54.1565 189.773 54.0452 189.58 53.9751Z" fill="white"/>
<path d="M95.2955 54.1212C95.1209 55.1703 95.0698 56.2361 95.1432 57.2971C95.1432 58.2747 95.1432 59.2524 95.1432 60.2301C95.1432 60.6734 95.3747 61.4142 94.6925 61.4446C94.0103 61.4749 94.2174 60.7159 94.2174 60.2787C94.2174 57.7889 94.2174 55.2992 94.2174 52.8095C94.2174 52.4391 94.0408 51.929 94.5707 51.7832C95.1006 51.6375 95.3625 52.0626 95.6061 52.4452L99.0535 57.8436C99.3336 58.2869 99.626 58.712 99.9122 59.137C100.473 58.882 100.284 58.4751 100.29 58.1654C100.29 56.3437 100.29 54.5219 100.29 52.7002C100.29 52.3237 100.199 51.7832 100.783 51.7954C101.368 51.8075 101.24 52.3601 101.24 52.7305C101.24 55.1595 101.24 57.625 101.24 60.0661C101.24 60.5519 101.545 61.2806 100.844 61.4567C100.144 61.6328 99.9001 60.9223 99.626 60.4548C98.5175 58.7362 97.4272 56.9995 96.3248 55.281C96.1025 54.8025 95.7447 54.3994 95.2955 54.1212Z" fill="white"/>
<path d="M18.6193 63.4903L31.3671 61.2617C29.3085 65.8282 22.6452 67.0913 18.6193 63.4903Z" fill="white"/>
<path d="M76.0914 56.5078C76.1767 55.8398 76.2193 55.1233 76.3655 54.431C76.4754 53.5788 76.9141 52.8028 77.5884 52.2676C78.2627 51.7325 79.1196 51.4804 79.9773 51.5648C81.8715 51.6013 82.9861 52.5425 83.4125 54.4735C83.7153 55.9605 83.6946 57.495 83.3516 58.9733C82.9617 60.7586 81.6827 61.6391 79.6971 61.6026C77.8212 61.5662 76.6883 60.6371 76.3594 58.7971C76.2072 58.0563 76.2072 57.3276 76.0914 56.5078ZM82.645 56.2467C82.5354 55.5727 82.4806 54.9047 82.31 54.2671C82.1889 53.7105 81.8671 53.2176 81.4057 52.8818C80.9443 52.5461 80.3754 52.3907 79.8068 52.4453C79.2656 52.4127 78.7305 52.5741 78.2982 52.9004C77.8659 53.2267 77.565 53.6964 77.4497 54.2246C76.979 55.7209 76.9641 57.3228 77.407 58.8275C77.5067 59.3318 77.7758 59.7871 78.17 60.1184C78.5642 60.4496 79.0599 60.6368 79.5753 60.6493C80.1351 60.732 80.7063 60.6178 81.1909 60.3264C81.6755 60.035 82.0432 59.5845 82.2309 59.0522C82.5215 58.1458 82.6614 57.1981 82.645 56.2467Z" fill="white"/>
<path d="M212.864 58.8388C212.864 61.4135 212.481 61.7657 209.862 61.5835C207.772 61.4438 206.694 60.4601 206.341 58.4258C206.048 56.9337 206.128 55.3926 206.573 53.9383C207.237 51.8554 210.227 50.7624 212.121 51.8736C212.328 52.0011 212.481 52.153 212.414 52.4019C212.347 52.6509 212.097 52.6813 211.878 52.663C211.342 52.6266 210.812 52.5477 210.282 52.5173C208.497 52.4201 207.614 53.1246 207.322 54.8734C207.131 55.9724 207.131 57.0961 207.322 58.1951C207.38 58.6291 207.535 59.0447 207.776 59.4111C208.016 59.7775 208.336 60.0853 208.712 60.312C209.088 60.5387 209.51 60.6784 209.947 60.7209C210.384 60.7633 210.825 60.7074 211.238 60.5573C211.436 60.5272 211.614 60.4231 211.738 60.2663C211.861 60.1095 211.92 59.9117 211.902 59.7132C211.902 59.2699 211.902 58.8205 211.902 58.3772C211.939 57.6971 211.902 57.1081 210.958 57.1992C210.623 57.2295 210.306 57.1202 210.349 56.683C210.398 56.3369 210.696 56.349 210.958 56.3126C212.572 56.0697 212.84 56.3126 212.84 57.9036L212.864 58.8388Z" fill="white"/>
<path d="M127.917 55.5057C127.917 54.4855 127.917 53.4654 127.917 52.4695C127.917 52.1537 127.917 51.7833 128.362 51.8015C128.806 51.8197 128.794 52.2691 128.8 52.6091C128.867 54.607 128.66 56.6109 128.928 58.5966C129.117 60.0237 129.823 60.643 131.224 60.6916C132.869 60.7523 133.752 59.9811 133.795 58.3355C133.837 56.5138 133.795 54.692 133.795 52.8703C133.795 52.4634 133.606 51.8501 134.258 51.8015C134.909 51.7529 134.787 52.3784 134.787 52.7852C134.787 54.607 134.836 56.4287 134.787 58.2505C134.727 60.5337 133.472 61.6936 131.243 61.645C129.013 61.5964 127.954 60.4973 127.905 58.208C127.899 57.2728 127.917 56.3802 127.917 55.5057Z" fill="white"/>
<path d="M113.848 60.6611C114.347 60.6603 114.845 60.6279 115.34 60.5639C115.726 60.527 116.083 60.344 116.338 60.0526C116.593 59.7612 116.726 59.3836 116.71 58.9972C116.741 58.2078 116.54 57.467 115.645 57.2059C114.877 56.9873 114.091 56.8172 113.318 56.5986C112.203 56.3193 111.491 55.712 111.491 54.4672C111.491 53.0401 111.99 52.1839 113.208 51.7771C114.331 51.4584 115.521 51.4584 116.643 51.7771C116.905 51.8317 117.204 51.9653 117.179 52.2811C117.143 52.7305 116.753 52.6394 116.455 52.6211C115.785 52.5786 115.121 52.4693 114.457 52.4693C113.428 52.4693 112.587 52.8094 112.453 53.9875C112.319 55.1655 113.02 55.5784 114.012 55.7606C114.493 55.8517 114.969 55.9792 115.444 56.0946C117.216 56.544 117.813 57.3759 117.661 59.1673C117.545 60.5579 116.674 61.3473 115.054 61.5173C114.12 61.6086 113.177 61.5595 112.258 61.3716C111.923 61.2987 111.46 61.2076 111.576 60.734C111.673 60.3514 112.1 60.4972 112.392 60.5093C112.685 60.5214 113.117 60.6065 113.848 60.6611Z" fill="white"/>
<path d="M59.9816 56.6102C59.9816 56.258 59.9816 55.8998 59.9816 55.5476C60.2374 51.5883 62.8016 51.1693 65.6703 51.813C65.9322 51.8737 66.2428 51.9648 66.2306 52.2927C66.2306 52.7421 65.8287 52.6814 65.5241 52.6631C65.2196 52.6449 64.8176 52.5963 64.4582 52.566C62.1194 52.3413 61.1144 53.1732 60.9561 55.4686C60.8838 56.3986 60.9186 57.3338 61.0596 58.2559C61.3824 60.1809 62.1499 60.7395 64.105 60.6424C64.641 60.6424 65.1708 60.5695 65.7068 60.527C65.9444 60.527 66.188 60.527 66.2489 60.7942C66.3098 61.0614 66.0723 61.2982 65.8104 61.3528C62.765 61.9905 60.414 61.6686 60.0303 58.0798C60.0029 57.5903 60.0029 57.0997 60.0303 56.6102H59.9816Z" fill="white"/>
<path d="M146.354 56.2337C146.406 57.2086 146.406 58.1856 146.354 59.1606C146.226 60.3751 146.744 60.7212 147.883 60.6119C148.727 60.5664 149.573 60.5664 150.417 60.6119C150.752 60.6119 151.074 60.7091 151.026 61.1281C150.977 61.5471 150.703 61.5046 150.417 61.5046H146.153C145.575 61.5046 145.374 61.1888 145.374 60.6666V52.5416C145.374 52.1712 145.374 51.7461 145.867 51.7461C146.476 51.7461 146.366 52.2501 146.372 52.6327C146.36 53.835 146.348 55.0313 146.354 56.2337Z" fill="white"/>
<path d="M162.915 57.0962C162.915 55.9849 162.86 54.8676 162.915 53.7624C162.982 52.8029 162.61 52.4629 161.696 52.5965C161.518 52.6177 161.339 52.6177 161.16 52.5965C160.789 52.56 160.229 52.7179 160.241 52.1289C160.253 51.5399 160.85 51.7099 161.179 51.7038C162.695 51.7038 164.224 51.7038 165.729 51.7038C166.07 51.7038 166.539 51.6552 166.532 52.1653C166.526 52.6754 166.045 52.5783 165.71 52.6026C165.443 52.6299 165.174 52.6299 164.906 52.6026C164.054 52.4811 163.853 52.8819 163.865 53.6713C163.865 55.9363 163.865 58.2014 163.822 60.4725C163.822 60.8368 163.993 61.4137 163.42 61.438C162.732 61.4684 162.915 60.8308 162.902 60.4361C162.896 59.3187 162.915 58.2075 162.915 57.0962Z" fill="white"/>
<path d="M176.704 56.4773V52.6091C176.704 52.2144 176.649 51.7164 177.252 51.7529C177.715 51.7832 177.733 52.2083 177.733 52.5726C177.733 55.2445 177.733 57.9144 177.733 60.5823C177.733 60.9709 177.733 61.481 177.179 61.4445C176.716 61.4445 176.71 60.9709 176.71 60.6126C176.706 59.2321 176.704 57.8537 176.704 56.4773Z" fill="white"/>
<path d="M15.6047 24.6272C14.685 21.8642 16.5 20.0667 19.0886 18.6518C20.4164 17.9292 21.7076 17.1398 22.9988 16.3504C23.2712 16.1621 23.5919 16.0552 23.9231 16.0423C24.2543 16.0294 24.5823 16.111 24.8687 16.2775C27.1998 17.3945 29.4292 18.7111 31.5319 20.2125C32.9084 21.2084 32.9632 22.4896 31.6964 23.6373C31.4663 23.8184 31.2833 24.0519 31.1627 24.3182C31.0422 24.5846 30.9877 24.8759 31.0038 25.1677C31.02 25.4594 31.1062 25.743 31.2554 25.9946C31.4045 26.2461 31.6122 26.4581 31.8608 26.6129C32.1133 26.7738 32.3083 27.0103 32.4177 27.2885C32.5271 27.5666 32.5454 27.8722 32.4699 28.1613C32.3201 30.6886 31.8724 33.1894 31.136 35.6123C30.3686 37.9259 29.522 40.2091 27.8227 42.0613C25.5569 44.5449 22.8465 44.6117 20.5138 42.1948C19.4474 41.0554 18.6192 39.7157 18.0775 38.2538C17.9122 37.704 17.7087 37.1663 17.4684 36.6446C17.05 35.7597 16.7549 34.8219 16.5914 33.8573C15.8767 30.8338 15.5452 27.7329 15.6047 24.6272ZM29.053 33.2804C29.0387 32.7623 28.8217 32.2702 28.4484 31.9094C28.0752 31.5486 27.5752 31.3476 27.0552 31.3494C26.5387 31.3848 26.055 31.6147 25.7022 31.9924C25.3493 32.3702 25.1537 32.8675 25.1549 33.3837C25.2033 33.8757 25.4262 34.3344 25.7835 34.6772C26.1408 35.02 26.609 35.2246 27.104 35.254C27.6212 35.2384 28.1124 35.0246 28.4755 34.657C28.8385 34.2893 29.0454 33.7963 29.053 33.2804Z" fill="white"/>
<path d="M33.304 21.5303C36.3494 24.0564 39.0049 26.5826 40.5276 30.0318C42.2208 33.8999 40.7042 36.6325 36.5504 37.2762C35.1034 37.5363 33.6228 37.5507 32.1711 37.3187C31.3611 37.173 31.3793 36.8694 31.5621 36.2561C32.444 33.5492 32.9762 30.7413 33.1456 27.9003C33.1647 27.6456 33.2493 27.4 33.3912 27.1873C33.5331 26.9746 33.7275 26.8019 33.9557 26.6858C35.2226 25.781 35.2713 24.2568 33.9557 23.5038C33.17 23.0423 33.1517 22.5079 33.304 21.5303Z" fill="white"/>
<path d="M14.9955 29.7219C15.635 32.1145 15.8786 34.5799 16.7922 36.9239C16.9749 37.3915 16.713 37.5311 16.2928 37.6222C13.9174 37.9805 11.5603 38.0412 9.38591 36.8692C7.60133 35.9159 6.94962 34.0091 7.5587 31.7684C8.12473 29.7014 9.18663 27.8028 10.6528 26.2363C11.207 26.2363 11.4872 26.6796 11.81 27.0197C12.7811 28.0216 13.848 28.9267 14.9955 29.7219Z" fill="white"/>
<path d="M30.399 11.82C30.399 12.239 30.0031 12.2451 29.7351 12.2998C27.9615 12.7266 26.2337 13.3245 24.5763 14.0851C24.3771 14.1829 24.159 14.2362 23.9371 14.2415C23.7151 14.2467 23.4947 14.2037 23.2911 14.1154C21.7338 13.4602 20.1189 12.9499 18.4673 12.5913C17.706 12.4334 17.5598 12.1237 17.9009 11.4132C18.784 9.59145 19.6733 7.71505 21.3787 6.45804C22.1707 5.78678 23.1838 5.43149 24.2229 5.46065C25.2621 5.4898 26.2536 5.90133 27.0065 6.61593C28.4585 7.93744 29.5717 9.58663 30.2528 11.4253C30.3016 11.5468 30.3442 11.6743 30.399 11.82Z" fill="white"/>
<path d="M14.9955 29.7215C13.848 28.9263 12.7812 28.0212 11.8101 27.0193C11.4873 26.6792 11.201 26.242 10.6528 26.2359C11.6535 24.8196 12.8441 23.5467 14.1915 22.4528C14.5204 22.1674 14.9894 21.888 14.9346 22.6653C14.758 25.0214 15.1173 27.3654 14.9955 29.7215Z" fill="white"/>
<path d="M32.1531 19.0705C30.1398 17.5597 27.9836 16.2479 25.7152 15.1538C27.1547 14.4007 28.6776 13.8178 30.2528 13.417C30.3419 13.3693 30.4415 13.3445 30.5427 13.3447C30.6438 13.345 30.7433 13.3704 30.8322 13.4186C30.921 13.4668 30.9965 13.5363 31.0516 13.6209C31.1068 13.7054 31.1399 13.8023 31.1481 13.9028C31.6942 15.5778 32.0318 17.3134 32.1531 19.0705Z" fill="white"/>
<path d="M22.2555 15.1898C20.0484 16.3487 17.9472 17.6979 15.976 19.2219C16.1095 17.5046 16.428 15.8067 16.9261 14.1574C16.9362 14.0681 16.9661 13.9821 17.0136 13.9056C17.0611 13.8292 17.125 13.7642 17.2008 13.7154C17.2766 13.6666 17.3622 13.6351 17.4517 13.6234C17.5411 13.6116 17.632 13.6198 17.7179 13.6474C19.2783 14.0091 20.7984 14.5258 22.2555 15.1898Z" fill="white"/>
</svg>
